:SAMPLES-PER-SECOND 30
:FULLY-SPECIFIED
:DEGREES
309
root  75.3677 39.8705 -2.34025 -18.6709 -77.9244 21.3039
RightUpLeg  4.91557 -11.0359 -7.64216
RightLeg  9.05589 -18.9598 2.24567
RightFoot  -14.5349 -0.0409947 1.94611
RightToes  0.00048216 0.542163 -0.142577
Spine  3.91741 -0.0415103 0.158376
Spine1  11.2677 1.37744 -4.26259
HEad  -18.9752 -3.91178 2.97986
LeftShoulder1  7.98159 -11.7439 -45.6337
LeftArm  -15.1194 27.6379 -27.076
LeftForeArm  30.2985 -24.5641 -3.66459
LeftHand  -0.25398 0.0180481 5.50724
RightShoulder  5.02267 8.16262 37.0412
RightArm  -8.49598 -18.9875 37.485
RightForeArm  4.25182 12.8284 6.38035
RightHand  -0.734505 -0.575279 -17.609
LeftUpLeg  -3.97322 9.96674 -3.73195
LeftLeg  5.15414 58.0376 -6.57666
LeftFoot  -6.41702 -0.125272 3.81094
LeftToes  1.06247e-005 4.65855e-005 -8.185e-006
310
root  75.9798 39.9104 -2.26765 -19.402 -81.0132 22.298
RightUpLeg  3.84903 -9.89144 -6.77073
RightLeg  7.25529 -17.0235 2.98523
RightFoot  -13.1466 -0.0761526 0.923653
RightToes  0.00048216 0.542163 -0.142577
Spine  4.96295 -0.362382 2.73062
Spine1  10.6789 1.27564 -4.8696
HEad  -20.6687 -3.77867 2.06163
LeftShoulder1  7.95042 -11.6287 -45.8067
LeftArm  -14.8523 25.7807 -26.7039
LeftForeArm  31.6589 -24.5329 -3.58885
LeftHand  -0.25398 0.0180481 5.50724
RightShoulder  5.06045 8.22137 37.1447
RightArm  -11.8035 -18.514 37.2779
RightForeArm  4.77313 11.9084 5.95444
RightHand  -0.986678 1.0486 -17.8777
LeftUpLeg  -6.76294 19.2898 -4.1448
LeftLeg  10.1399 50.2847 -1.52423
LeftFoot  -6.20824 -0.135112 3.84386
LeftToes  1.06247e-005 4.65855e-005 -8.185e-006
311
root  76.6073 39.9383 -2.21656 -18.8252 -83.9203 22.3012
RightUpLeg  1.76008 -10.0536 -6.12239
RightLeg  7.34331 -13.9567 3.76413
RightFoot  -11.6134 -0.0759294 1.10589
RightToes  0.00048216 0.542163 -0.142577
Spine  5.73861 -0.466022 4.96469
Spine1  10.4289 1.26481 -5.07229
HEad  -22.5941 -3.43282 1.53053
LeftShoulder1  7.79892 -11.4336 -45.5083
LeftArm  -15.4623 23.4744 -26.7272
LeftForeArm  34.9045 -24.6579 -3.45111
LeftHand  -0.25398 0.0180481 5.50724
RightShoulder  5.08638 8.34781 36.9113
RightArm  -14.8358 -17.9987 36.9983
RightForeArm  5.7315 12.0443 5.32281
RightHand  -1.0214 2.06607 -16.0433
LeftUpLeg  -12.3092 34.5432 -6.86385
LeftLeg  15.8052 31.8563 4.98262
LeftFoot  -5.2899 -0.105908 2.64614
LeftToes  1.06247e-005 4.65855e-005 -8.185e-006
312
root  77.2021 39.9593 -2.23243 -24.3451 -86.0138 28.3574
RightUpLeg  -0.461279 -10.1709 -5.76666
RightLeg  8.039 -12.2481 4.09202
RightFoot  -10.818 -0.0765071 0.748237
RightToes  0.00048216 0.542163 -0.142577
Spine  6.85306 -0.395914 4.97896
Spine1  9.52278 0.947379 -3.82439
HEad  -23.8946 -2.81248 1.27957
LeftShoulder1  7.50438 -11.1929 -44.4641
LeftArm  -16.2436 21.5841 -26.8135
LeftForeArm  37.7474 -24.5314 -3.28286
LeftHand  -0.25398 0.0180481 5.50724
RightShoulder  5.02067 8.37722 36.2693
RightArm  -17.6405 -17.7892 36.3941
RightForeArm  5.31061 13.1639 4.73319
RightHand  -1.07233 2.81275 -15.3519
LeftUpLeg  -17.2932 39.0142 -9.13856
LeftLeg  19.0274 17.8362 7.40285
LeftFoot  -3.55202 -0.0289749 0.751503
LeftToes  1.06247e-005 4.65855e-005 -8.185e-006
313
root  77.7183 39.99 -2.28271 -40.4512 -86.9286 44.508
RightUpLeg  -2.02984 -10.2386 -5.81118
RightLeg  8.82818 -11.2609 3.83039
RightFoot  -10.3297 -0.0688206 -0.124609
RightToes  0.00048216 0.542163 -0.142577
Spine  8.49118 -0.360325 3.18716
Spine1  7.88376 0.222756 -1.34665
HEad  -24.1145 -2.18816 1.05312
LeftShoulder1  7.15807 -10.9822 -42.9528
LeftArm  -16.112 20.2627 -26.0559
LeftForeArm  38.4173 -23.6989 -3.09264
LeftHand  -0.25398 0.0180481 5.50724
RightShoulder  4.77768 8.13553 35.0812
RightArm  -19.9775 -17.5627 35.2146
RightForeArm  3.89343 14.4127 4.35344
RightHand  -1.32943 3.92984 -16.7633
LeftUpLeg  -17.1855 31.4464 -6.59281
LeftLeg  20.7692 11.9813 5.32459
LeftFoot  -2.26505 0.085183 -0.917183
LeftToes  1.06247e-005 4.65855e-005 -8.185e-006
314
root  78.113 40.0202 -2.29403 -59.2688 -87.1985 62.8827
RightUpLeg  -2.60318 -10.308 -6.03697
RightLeg  9.27185 -10.2448 3.574
RightFoot  -9.67315 -0.0593252 -0.449491
RightToes  0.00048216 0.542163 -0.142577
Spine  9.8089 -0.42652 1.82162
Spine1  6.60689 -0.383972 0.580644
HEad  -23.1221 -1.48165 0.870936
LeftShoulder1  6.7958 -10.8245 -41.1059
LeftArm  -14.9838 18.9394 -24.0949
LeftForeArm  37.8019 -21.8659 -2.89899
LeftHand  -0.25398 0.0180481 5.50724
RightShoulder  4.39122 7.67224 33.3451
RightArm  -22.1583 -16.9021 33.3561
RightForeArm  3.24302 14.917 4.04337
RightHand  -1.56968 4.88289 -17.9757
LeftUpLeg  -15.3498 24.0049 -4.0458
LeftLeg  20.2991 6.6242 3.03646
LeftFoot  -2.71526 0.18551 -2.2662
LeftToes  1.06247e-005 4.65855e-005 -8.185e-006
315
root  78.3722 40.0284 -2.2345 -84.4546 -87.6057 87.5472
RightUpLeg  -2.56585 -10.2714 -6.02376
RightLeg  9.14887 -9.13573 3.65376
RightFoot  -9.05292 -0.0552538 -0.302865
RightToes  0.00048216 0.542163 -0.142577
Spine  10.1025 -0.431293 2.19498
Spine1  6.00812 -0.340097 0.686435
HEad  -21.1487 -0.87553 0.487035
LeftShoulder1  6.33664 -10.5976 -38.7435
LeftArm  -14.0518 17.3731 -21.4165
LeftForeArm  37.4216 -19.0701 -2.83793
LeftHand  -0.25398 0.0180481 5.50724
RightShoulder  3.97428 7.13571 31.4077
RightArm  -24.1883 -16.0685 30.4321
RightForeArm  2.90024 14.6731 3.71204
RightHand  -1.60274 5.15311 -17.8828
LeftUpLeg  -12.6319 17.2071 -1.69885
LeftLeg  18.7894 5.74271 2.49972
LeftFoot  -4.69421 0.211091 -3.14368
LeftToes  1.06247e-005 4.65855e-005 -8.185e-006
316
root  78.5265 40.0296 -2.12539 -124.436 -87.6287 127.23
RightUpLeg  -2.48643 -10.0149 -5.68092
RightLeg  8.62537 -7.9831 3.88524
RightFoot  -8.55765 -0.0469885 -0.444386
RightToes  0.00048216 0.542163 -0.142577
Spine  9.66613 -0.217206 3.427
Spine1  5.30281 0.195796 -0.184911
HEad  -18.3778 -0.414198 -0.205695
LeftShoulder1  5.72116 -10.1047 -35.9429
LeftArm  -14.4414 15.9797 -18.6949
LeftForeArm  36.7788 -15.8084 -2.8859
LeftHand  -0.25398 0.0180481 5.50724
RightShoulder  3.54097 6.51735 29.3548
RightArm  -25.5626 -15.2145 26.2252
RightForeArm  1.19464 13.961 3.44608
RightHand  -1.62981 5.33326 -17.8803
LeftUpLeg  -9.67995 12.911 -0.0158862
LeftLeg  16.4042 7.77721 2.81347
LeftFoot  -6.49982 0.180446 -3.32346
LeftToes  1.06247e-005 4.65855e-005 -8.185e-006
317
root  78.6197 40.0661 -2.00163 -151.072 -86.783 153.748
RightUpLeg  -2.41836 -9.67716 -5.41515
RightLeg  7.90774 -6.91131 4.05944
RightFoot  -7.90693 -0.0309321 -0.757203
RightToes  0.00048216 0.542163 -0.142577
Spine  9.06866 0.0533813 3.79293
Spine1  4.23751 0.499611 -0.31884
HEad  -15.0054 0.480973 -0.679145
LeftShoulder1  5.00954 -9.30567 -33.0553
LeftArm  -15.7387 15.1461 -16.2386
LeftForeArm  34.3892 -12.978 -2.73813
LeftHand  -0.25398 0.0180481 5.50724
RightShoulder  3.03073 5.71808 26.8072
RightArm  -26.4442 -13.7648 21.4474
RightForeArm  -1.47377 12.8713 3.20294
RightHand  -1.78119 5.84767 -18.6322
LeftUpLeg  -6.89514 10.2763 0.995864
LeftLeg  13.0587 10.4339 2.16803
LeftFoot  -6.97144 0.146292 -2.75036
LeftToes  1.06247e-005 4.65855e-005 -8.185e-006
318
root  78.687 40.1479 -1.89246 -153.406 -86.3036 156.009
RightUpLeg  -2.17065 -9.52119 -5.60426
RightLeg  7.09302 -6.41064 4.12899
RightFoot  -7.0961 -0.0221768 -0.705307
RightToes  0.00048216 0.542163 -0.142577
Spine  8.39831 0.09591 2.64816
Spine1  3.37387 0.184151 0.768259
HEad  -12.1895 1.8227 -1.29474
LeftShoulder1  4.32839 -8.45658 -30.1187
LeftArm  -16.874 14.694 -13.9562
LeftForeArm  31.0813 -11.2382 -2.39686
LeftHand  -0.25398 0.0180481 5.50724
RightShoulder  2.48065 4.77405 23.7813
RightArm  -27.6072 -11.6079 17.0416
RightForeArm  -3.82837 11.8623 2.89696
RightHand  -1.92079 6.31406 -19.281
LeftUpLeg  -4.72437 7.25534 1.52153
LeftLeg  9.31963 13.2546 0.193301
LeftFoot  -6.20085 0.116978 -1.79009
LeftToes  1.06247e-005 4.65855e-005 -8.185e-006
319
root  78.754 40.2435 -1.81689 -143.204 -86.5377 145.758
RightUpLeg  -1.80627 -9.57761 -6.13261
RightLeg  6.29661 -6.79564 4.07946
RightFoot  -6.42017 -0.0244219 -0.443136
RightToes  0.00048216 0.542163 -0.142577
Spine  7.68608 -0.139878 0.657081
Spine1  2.88977 -0.531596 2.34478
HEad  -10.3346 2.99668 -1.8067
LeftShoulder1  3.67047 -7.61205 -26.8643
LeftArm  -17.5818 14.0648 -11.79
LeftForeArm  29.3044 -10.5748 -2.10897
LeftHand  -0.25398 0.0180481 5.50724
RightShoulder  1.97572 3.84902 20.4966
RightArm  -29.0719 -9.63985 13.4781
RightForeArm  -6.18655 11.6405 2.71012
RightHand  -1.95683 6.31105 -19.6327
LeftUpLeg  -3.31441 5.0292 1.546
LeftLeg  5.98709 14.9319 -1.88844
LeftFoot  -4.78127 0.0955368 -1.15714
LeftToes  1.06247e-005 4.65855e-005 -8.185e-006
320
root  78.8272 40.3219 -1.76623 -127.218 -86.8898 129.707
RightUpLeg  -1.462 -9.63368 -6.60575
RightLeg  5.63768 -7.62902 3.92705
RightFoot  -5.94528 -0.0227883 -0.370353
RightToes  0.00048216 0.542163 -0.142577
Spine  7.36323 -0.381786 -0.970038
Spine1  2.02347 -1.05438 3.33688
HEad  -8.83522 3.31515 -1.52136
LeftShoulder1  3.05028 -6.83504 -23.1968
LeftArm  -18.0929 13.0314 -9.71135
LeftForeArm  29.4946 -10.5673 -1.9228
LeftHand  -0.25398 0.0180481 5.50724
RightShoulder  1.53074 2.9004 17.2896
RightArm  -29.9297 -8.60039 10.3862
RightForeArm  -8.68658 12.2417 2.83603
RightHand  -1.92386 5.88793 -20.0001
LeftUpLeg  -2.24635 4.10816 1.41679
LeftLeg  3.35635 15.4077 -3.38612
LeftFoot  -3.34216 0.0946781 -1.06222
LeftToes  1.06247e-005 4.65855e-005 -8.185e-006
